<svg width="24" height="24" viewBox="0 0 24 24" fill="none" xmlns="http://www.w3.org/2000/svg">
<path d="M23 8.8875C23 8.7375 22.925 8.6625 22.925 8.5875C22.85 8.5125 22.85 8.4375 22.775 8.3625L13.025 1.6125C12.8 1.4625 12.425 1.4625 12.2 1.6125L2.45 8.3625C2.225 8.4375 2.15 8.5125 2.15 8.5125C2.075 8.6625 2 8.7375 2 8.8125C2 8.8125 2 8.8125 2 8.8875V8.9625V18.7125C2 20.8125 3.65 22.4625 5.75 22.4625H19.25C21.35 22.4625 23 20.8125 23 18.7125V8.9625V8.8875ZM12.5 3.1125L20.9 8.9625L12.5 14.0625L4.1 8.9625L12.5 3.1125Z" fill="#3C4043" fill-opacity="0.7"/>
</svg>
