<svg width="24" height="24" viewBox="0 0 24 24" fill="none" xmlns="http://www.w3.org/2000/svg">
<path d="M18.1328 2H5.86719C3.73438 2 2 3.7233 2 5.84248V9.90232V18.0375C2 20.1567 3.73438 21.88 5.86719 21.88H18.1328C20.2656 21.88 22 20.1567 22 18.0375V9.89456V5.83472C21.9922 3.7233 20.2578 2 18.1328 2ZM19.2422 4.28996H19.6875V4.72467V7.65893L16.3047 7.66669L16.2969 4.29773L19.2422 4.28996ZM9.14062 9.89456C9.78125 9.01739 10.8203 8.43519 11.9922 8.43519C13.1641 8.43519 14.2031 9.00962 14.8438 9.89456C15.2656 10.469 15.5078 11.1754 15.5078 11.9361C15.5078 13.8612 13.9297 15.437 11.9844 15.437C10.0391 15.437 8.47656 13.8612 8.47656 11.9361C8.47656 11.1754 8.72656 10.469 9.14062 9.89456ZM20.0469 18.0298C20.0469 19.0777 19.1875 19.9316 18.1328 19.9316H5.86719C4.8125 19.9316 3.95312 19.0777 3.95312 18.0298V9.89456H6.9375C6.67969 10.5233 6.53125 11.2142 6.53125 11.9361C6.53125 14.9325 8.98438 17.3699 12 17.3699C15.0156 17.3699 17.4688 14.9325 17.4688 11.9361C17.4688 11.2142 17.3203 10.5233 17.0625 9.89456H20.0469V18.0298Z" fill="#3C4043" fill-opacity="0.7"/>
</svg>
