<svg width="22" height="20" viewBox="0 0 22 20" fill="none" xmlns="http://www.w3.org/2000/svg">
<path d="M6.07904 6.25H2.18213V19.8357H6.07904V6.25Z" fill="#3C4043" fill-opacity="0.7"/>
<path d="M4.04857 0.486816C2.61163 0.486816 1.66669 1.49915 1.66669 2.84326C1.66669 4.16185 2.58039 5.1997 3.9939 5.1997H4.02514C5.49332 5.1997 6.40702 4.15334 6.39921 2.84326C6.36798 1.49915 5.48551 0.486816 4.04857 0.486816Z" fill="#3C4043" fill-opacity="0.7"/>
<path d="M16.3492 6.19971C14.1157 6.19971 12.7179 7.5268 12.4601 8.46257V6.32731H8.07904C8.13371 7.45875 8.07904 19.913 8.07904 19.913H12.4601V12.5715C12.4601 12.1546 12.4445 11.7463 12.5539 11.457C12.8506 10.6404 13.4988 9.78967 14.6624 9.78967C16.1852 9.78967 16.8725 11.0487 16.8725 12.8862V19.913H21.2926V12.3588C21.2926 8.15632 19.1216 6.19971 16.3492 6.19971Z" fill="#3C4043" fill-opacity="0.7"/>
</svg>
